<svg xmlns="http://www.w3.org/2000/svg" width="16" height="16" viewBox="0 0 16 16"><g class="nc-icon-wrapper" fill="#333333"><path data-color="color-2" d="M15,1.5C15,2.32843,12.7251,3,8,3S1,2.32843,1,1.5S3.2749,0,8,0S15,0.67157,15,1.5z"></path> <path fill="#333333" d="M8,4C5.38367,4,2.74042,3.8512,1,3.10602V14.5C1,15.32843,3.2749,16,8,16s7-0.67157,7-1.5V3.10602 C13.25958,3.8512,10.61633,4,8,4z M11.41406,12L10,13.41406l-2-2l-2,2L4.58594,12l2-2l-2-2L6,6.58594l2,2l2-2L11.41406,8l-2,2 L11.41406,12z"></path></g></svg>