<svg xmlns="http://www.w3.org/2000/svg" width="64" height="64" viewBox="0 0 64 64"><g class="nc-icon-wrapper" fill="#84d87f"><path d="M30.958,36.808A9.732,9.732,0,0,1,32.4,38.332c.01.136.038.3.065.466A14,14,0,0,1,45,31a18.09,18.09,0,0,0,4.907-.69,11.6,11.6,0,0,0-1.473-.577l-1.753-1.6-.207-.146a18.59,18.59,0,0,0-5.253-1.161,13.933,13.933,0,0,0-2.936-1.4c-1.148-.292-3.729.494-4.786.843l-.273.09-.184.222c-.981,1.187-4.185,5.213-4.185,7.228C28.857,34.831,29.831,35.747,30.958,36.808Z" fill="#84d87f"></path><path d="M27,61a3.966,3.966,0,0,1,.272-1.419,27.9,27.9,0,0,1-13.15-6.05l1.869-2.8a4.581,4.581,0,0,0,2.463-1.6c1.332-2.4-.343-5.912-.85-6.869a11.568,11.568,0,0,0-.5-2.829c-.384-.96-1.963-1.884-2.856-2.343C13.6,35.976,12.319,33.476,12.319,32a2.371,2.371,0,0,1,2.3-2.476,6.31,6.31,0,0,0,4.015-2.682c.937-.286,2.988-1.032,3.687-2.255.749-1.313-.086-4.329-.575-5.819a7.4,7.4,0,0,0-.118-3.579,6.813,6.813,0,0,0-2.206-2.806,16.989,16.989,0,0,0-2.445-3.994,27.823,27.823,0,0,1,11.053-4.1,3.974,3.974,0,0,0-.514,2.846c.342.942,1.688,1.637,2.821,2.068-.143,1.114-.155,2.937,1.036,3.891s2.651.538,3.622.271l.371-.1a23.19,23.19,0,0,1,.165,4.044l-.013.4.271.3c.107.118,2.663,2.908,5.34,3.284a2.865,2.865,0,0,0,.415.028c2.426,0,5.234-2.761,6.177-3.767a50.518,50.518,0,0,0,6.831-2.122A27.89,27.89,0,0,1,59,24.659a4,4,0,0,1,1.932-.553A29.994,29.994,0,1,0,27.058,61.578,4.086,4.086,0,0,1,27,61Z" fill="#84d87f"></path><path d="M61.371,27.168A1,1,0,0,1,62,28.1L62,39A17.019,17.019,0,0,1,45,56a10.8,10.8,0,0,1-3.879-.741C39.09,58.942,36.641,62,31,62a1,1,0,0,1,0-2c4.522,0,6.5-2.342,8.313-5.6.377-.679.747-1.4,1.13-2.14,2.312-4.5,4.931-9.6,12.222-12.2a1,1,0,1,0-.672-1.883c-8.036,2.869-10.847,8.341-13.329,13.168-.343.667-.661,1.282-.971,1.855A10.984,10.984,0,0,1,45,34a20.8,20.8,0,0,0,15.274-6.589A1.007,1.007,0,0,1,61.371,27.168Z" data-color="color-2"></path></g></svg>