<svg xmlns="http://www.w3.org/2000/svg" width="64" height="64" viewBox="0 0 64 64"><g class="nc-icon-wrapper" fill="#84d87f"><path data-color="color-2" d="M46,58H18c-0.552,0-1,0.447-1,1s0.448,1,1,1h28c0.552,0,1-0.447,1-1S46.552,58,46,58z"></path> <path fill="#84d87f" d="M62.832,28.445L50.844,10.464c-0.068-0.108-0.159-0.204-0.27-0.282c0,0,0,0-0.001-0.001h0 c-0.01-0.007-0.02-0.014-0.03-0.021h0l0-0.001c-0.171-0.109-0.37-0.166-0.556-0.159H35.859C35.496,8.599,34.401,7.504,33,7.141V4 c0-0.553-0.448-1-1-1s-1,0.447-1,1v3.141C29.599,7.504,28.504,8.599,28.141,10H14.014c-0.202,0.001-0.384,0.049-0.555,0.159 c0,0-0.001,0.001-0.001,0.001h0c-0.01,0.007-0.02,0.014-0.03,0.021h0c0,0.001,0,0.001-0.001,0.001 c-0.111,0.078-0.201,0.174-0.27,0.282L1.168,28.445C1.059,28.609,1,28.803,1,29c0,4.437,4.132,11,13,11s13-6.563,13-11 c0-0.197-0.059-0.391-0.168-0.555L15.869,12h12.273c0.363,1.401,1.458,2.496,2.859,2.859V56h2V14.859 c1.401-0.363,2.496-1.458,2.859-2.859h12.273L37.168,28.445C37.059,28.609,37,28.803,37,29c0,4.437,4.132,11,13,11s13-6.563,13-11 C63,28.803,62.941,28.609,62.832,28.445z M24.131,28H3.869L14,12.803L24.131,28z M39.869,28L50,12.803L60.131,28H39.869z"></path></g></svg>